<svg width="16" height="16" viewBox="0 0 16 16" fill="none" xmlns="http://www.w3.org/2000/svg">
<g id="brand-instagram" clip-path="url(#clip0_4541_11000)">
<path id="Vector" d="M2.66602 5.33464C2.66602 4.62739 2.94697 3.94911 3.44706 3.44902C3.94716 2.94892 4.62544 2.66797 5.33268 2.66797H10.666C11.3733 2.66797 12.0515 2.94892 12.5516 3.44902C13.0517 3.94911 13.3327 4.62739 13.3327 5.33464V10.668C13.3327 11.3752 13.0517 12.0535 12.5516 12.5536C12.0515 13.0537 11.3733 13.3346 10.666 13.3346H5.33268C4.62544 13.3346 3.94716 13.0537 3.44706 12.5536C2.94697 12.0535 2.66602 11.3752 2.66602 10.668V5.33464Z" stroke="#101828" stroke-width="1.25" stroke-linecap="round" stroke-linejoin="round"/>
<path id="Vector_2" d="M6 8C6 8.53043 6.21071 9.03914 6.58579 9.41421C6.96086 9.78929 7.46957 10 8 10C8.53043 10 9.03914 9.78929 9.41421 9.41421C9.78929 9.03914 10 8.53043 10 8C10 7.46957 9.78929 6.96086 9.41421 6.58579C9.03914 6.21071 8.53043 6 8 6C7.46957 6 6.96086 6.21071 6.58579 6.58579C6.21071 6.96086 6 7.46957 6 8Z" stroke="#101828" stroke-width="1.25" stroke-linecap="round" stroke-linejoin="round"/>
<path id="Vector_3" d="M11 5V5.00667" stroke="#101828" stroke-width="1.25" stroke-linecap="round" stroke-linejoin="round"/>
</g>
<defs>
<clipPath id="clip0_4541_11000">
<rect width="16" height="16" fill="white"/>
</clipPath>
</defs>
</svg>
