<svg width="16" height="16" viewBox="0 0 16 16" fill="none" xmlns="http://www.w3.org/2000/svg">
<g id="brand-twitter" clip-path="url(#clip0_4541_11006)">
<path id="Vector" d="M14.6673 2.67139C14.0007 2.99806 13.3473 3.13072 12.6673 3.33139C11.92 2.48806 10.812 2.44139 9.74732 2.84006C8.68265 3.23872 7.98532 4.21339 8.00065 5.33139V5.99806C5.83732 6.05339 3.91065 5.06806 2.66732 3.33139C2.66732 3.33139 -0.120682 8.28672 5.33398 10.6647C4.08598 11.4961 2.84132 12.0567 1.33398 11.9981C3.53932 13.2001 5.94265 13.6134 8.02332 13.0094C10.41 12.3161 12.3713 10.5274 13.124 7.84806C13.3485 7.03317 13.46 6.1913 13.4553 5.34606C13.4553 5.18006 14.462 3.49806 14.6673 2.67072V2.67139Z" stroke="#101828" stroke-width="1.25" stroke-linecap="round" stroke-linejoin="round"/>
</g>
<defs>
<clipPath id="clip0_4541_11006">
<rect width="16" height="16" fill="white"/>
</clipPath>
</defs>
</svg>
